P3
33 32
255
46 182 166 46 182 166 46 182 166 46 182 166 46 182 166 46 182 166 46 182 166 46 182 166 46 182 166 46 182 166 46 182 166 46 182 166 46 182 166 46 182 166 46 182 166 46 182 166 46 182 166 46 182 166 209 237 53 209 237 53 209 237 53 209 237 53 209 237 53 209 237 53 209 237 53 209 237 53 209 237 53 209 237 53 209 237 53 209 237 53 209 237 53 209 237 53 209 237 53 
46 182 166 46 182 166 46 182 166 46 182 166 46 182 166 46 182 166 46 182 166 46 182 166 46 182 166 46 182 166 46 182 166 46 182 166 46 182 166 46 182 166 46 182 166 46 182 166 46 182 166 46 182 166 209 237 53 209 237 53 209 237 53 209 237 53 209 237 53 209 237 53 209 237 53 209 237 53 209 237 53 209 237 53 209 237 53 209 237 53 209 237 53 209 237 53 209 237 53 
46 182 166 46 182 166 46 182 166 46 182 166 46 182 166 46 182 166 46 182 166 46 182 166 46 182 166 46 182 166 46 182 166 46 182 166 46 182 166 46 182 166 46 182 166 46 182 166 46 182 166 46 182 166 209 237 53 209 237 53 209 237 53 209 237 53 209 237 53 209 237 53 209 237 53 209 237 53 209 237 53 209 237 53 209 237 53 209 237 53 209 237 53 209 237 53 209 237 53 
46 182 166 46 182 166 46 182 166 46 182 166 46 182 166 46 182 166 46 182 166 46 182 166 46 182 166 46 182 166 46 182 166 46 182 166 46 182 166 46 182 166 46 182 166 46 182 166 46 182 166 46 182 166 209 237 53 209 237 53 209 237 53 209 237 53 209 237 53 209 237 53 209 237 53 209 237 53 209 237 53 209 237 53 209 237 53 209 237 53 209 237 53 209 237 53 209 237 53 
46 182 166 46 182 166 46 182 166 46 182 166 46 182 166 46 182 166 46 182 166 46 182 166 46 182 166 46 182 166 46 182 166 46 182 166 46 182 166 46 182 166 46 182 166 46 182 166 46 182 166 46 182 166 209 237 53 209 237 53 209 237 53 209 237 53 209 237 53 209 237 53 209 237 53 209 237 53 209 237 53 209 237 53 209 237 53 209 237 53 209 237 53 209 237 53 209 237 53 
46 182 166 46 182 166 46 182 166 46 182 166 46 182 166 46 182 166 46 182 166 46 182 166 46 182 166 46 182 166 46 182 166 46 182 166 46 182 166 46 182 166 46 182 166 46 182 166 46 182 166 46 182 166 209 237 53 209 237 53 209 237 53 209 237 53 209 237 53 209 237 53 209 237 53 209 237 53 209 237 53 209 237 53 209 237 53 209 237 53 209 237 53 209 237 53 209 237 53 
46 182 166 46 182 166 46 182 166 46 182 166 46 182 166 46 182 166 46 182 166 46 182 166 46 182 166 46 182 166 46 182 166 46 182 166 46 182 166 46 182 166 46 182 166 46 182 166 46 182 166 46 182 166 209 237 53 209 237 53 209 237 53 209 237 53 209 237 53 209 237 53 209 237 53 209 237 53 209 237 53 209 237 53 209 237 53 209 237 53 209 237 53 209 237 53 209 237 53 
46 182 166 46 182 166 46 182 166 46 182 166 46 182 166 46 182 166 46 182 166 46 182 166 46 182 166 46 182 166 46 182 166 46 182 166 46 182 166 46 182 166 46 182 166 46 182 166 46 182 166 46 182 166 209 237 53 209 237 53 209 237 53 209 237 53 209 237 53 209 237 53 209 237 53 209 237 53 209 237 53 209 237 53 209 237 53 209 237 53 209 237 53 209 237 53 209 237 53 
46 182 166 46 182 166 46 182 166 46 182 166 46 182 166 46 182 166 46 182 166 46 182 166 46 182 166 46 182 166 46 182 166 46 182 166 46 182 166 46 182 166 46 182 166 46 182 166 46 182 166 46 182 166 209 237 53 209 237 53 209 237 53 209 237 53 209 237 53 209 237 53 209 237 53 209 237 53 209 237 53 209 237 53 209 237 53 209 237 53 209 237 53 209 237 53 209 237 53 
46 182 166 46 182 166 46 182 166 46 182 166 46 182 166 46 182 166 46 182 166 46 182 166 46 182 166 46 182 166 46 182 166 46 182 166 46 182 166 46 182 166 46 182 166 46 182 166 46 182 166 46 182 166 209 237 53 209 237 53 209 237 53 209 237 53 209 237 53 209 237 53 209 237 53 209 237 53 209 237 53 209 237 53 209 237 53 209 237 53 209 237 53 209 237 53 209 237 53 
46 182 166 46 182 166 46 182 166 46 182 166 46 182 166 46 182 166 46 182 166 46 182 166 46 182 166 46 182 166 46 182 166 46 182 166 46 182 166 46 182 166 46 182 166 46 182 166 46 182 166 46 182 166 209 237 53 209 237 53 209 237 53 209 237 53 209 237 53 209 237 53 209 237 53 209 237 53 209 237 53 209 237 53 209 237 53 209 237 53 209 237 53 209 237 53 209 237 53 
46 182 166 46 182 166 46 182 166 46 182 166 46 182 166 46 182 166 46 182 166 46 182 166 46 182 166 46 182 166 46 182 166 46 182 166 46 182 166 46 182 166 46 182 166 46 182 166 46 182 166 46 182 166 209 237 53 209 237 53 209 237 53 209 237 53 209 237 53 209 237 53 209 237 53 209 237 53 209 237 53 209 237 53 209 237 53 209 237 53 209 237 53 209 237 53 209 237 53 
46 182 166 46 182 166 46 182 166 46 182 166 46 182 166 46 182 166 46 182 166 46 182 166 46 182 166 46 182 166 46 182 166 46 182 166 46 182 166 46 182 166 46 182 166 46 182 166 46 182 166 46 182 166 209 237 53 209 237 53 209 237 53 209 237 53 209 237 53 209 237 53 209 237 53 209 237 53 209 237 53 209 237 53 209 237 53 209 237 53 209 237 53 209 237 53 209 237 53 
46 182 166 46 182 166 46 182 166 46 182 166 46 182 166 46 182 166 46 182 166 46 182 166 46 182 166 46 182 166 46 182 166 46 182 166 46 182 166 46 182 166 46 182 166 46 182 166 46 182 166 46 182 166 209 237 53 209 237 53 209 237 53 209 237 53 209 237 53 209 237 53 209 237 53 209 237 53 209 237 53 209 237 53 209 237 53 209 237 53 209 237 53 209 237 53 209 237 53 
46 182 166 46 182 166 46 182 166 46 182 166 46 182 166 46 182 166 46 182 166 46 182 166 46 182 166 46 182 166 46 182 166 46 182 166 46 182 166 46 182 166 46 182 166 46 182 166 46 182 166 46 182 166 209 237 53 209 237 53 209 237 53 209 237 53 209 237 53 209 237 53 209 237 53 209 237 53 209 237 53 209 237 53 209 237 53 209 237 53 209 237 53 209 237 53 209 237 53 
46 182 166 46 182 166 46 182 166 46 182 166 46 182 166 46 182 166 46 182 166 46 182 166 46 182 166 46 182 166 46 182 166 46 182 166 46 182 166 46 182 166 46 182 166 46 182 166 46 182 166 46 182 166 217 213 93 217 213 93 217 213 93 217 213 93 217 213 93 217 213 93 217 213 93 248 24 216 248 24 216 248 24 216 248 24 216 248 24 216 248 24 216 248 24 216 248 24 216 
46 182 166 46 182 166 46 182 166 46 182 166 46 182 166 46 182 166 46 182 166 46 182 166 46 182 166 46 182 166 46 182 166 46 182 166 46 182 166 46 182 166 46 182 166 46 182 166 46 182 166 46 182 166 217 213 93 217 213 93 217 213 93 217 213 93 217 213 93 217 213 93 217 213 93 248 24 216 248 24 216 248 24 216 248 24 216 248 24 216 248 24 216 248 24 216 248 24 216 
46 182 166 46 182 166 46 182 166 46 182 166 46 182 166 46 182 166 46 182 166 46 182 166 46 182 166 46 182 166 46 182 166 46 182 166 46 182 166 46 182 166 46 182 166 46 182 166 46 182 166 46 182 166 217 213 93 217 213 93 217 213 93 217 213 93 217 213 93 217 213 93 217 213 93 248 24 216 248 24 216 248 24 216 248 24 216 248 24 216 248 24 216 248 24 216 248 24 216 
178 170 186 178 170 186 178 170 186 178 170 186 178 170 186 178 170 186 178 170 186 178 170 186 178 170 186 178 170 186 178 170 186 178 170 186 178 170 186 178 170 186 124 12 236 124 12 236 124 12 236 124 12 236 217 213 93 217 213 93 217 213 93 217 213 93 217 213 93 217 213 93 217 213 93 248 24 216 248 24 216 248 24 216 248 24 216 248 24 216 248 24 216 248 24 216 248 24 216 
178 170 186 178 170 186 178 170 186 178 170 186 178 170 186 178 170 186 178 170 186 178 170 186 178 170 186 178 170 186 178 170 186 178 170 186 178 170 186 178 170 186 124 12 236 124 12 236 124 12 236 124 12 236 217 213 93 217 213 93 217 213 93 217 213 93 217 213 93 217 213 93 217 213 93 248 24 216 248 24 216 248 24 216 248 24 216 248 24 216 248 24 216 248 24 216 248 24 216 
178 170 186 178 170 186 178 170 186 178 170 186 178 170 186 178 170 186 178 170 186 178 170 186 178 170 186 178 170 186 178 170 186 178 170 186 178 170 186 178 170 186 124 12 236 124 12 236 124 12 236 124 12 236 217 213 93 217 213 93 217 213 93 217 213 93 217 213 93 217 213 93 217 213 93 248 24 216 248 24 216 248 24 216 248 24 216 248 24 216 248 24 216 248 24 216 248 24 216 
178 170 186 178 170 186 178 170 186 178 170 186 178 170 186 178 170 186 178 170 186 178 170 186 178 170 186 178 170 186 178 170 186 178 170 186 178 170 186 178 170 186 124 12 236 124 12 236 124 12 236 124 12 236 217 213 93 217 213 93 217 213 93 217 213 93 217 213 93 217 213 93 217 213 93 248 24 216 248 24 216 248 24 216 248 24 216 248 24 216 248 24 216 248 24 216 248 24 216 
178 170 186 178 170 186 178 170 186 178 170 186 178 170 186 178 170 186 178 170 186 178 170 186 178 170 186 178 170 186 178 170 186 178 170 186 178 170 186 178 170 186 54 158 206 54 158 206 54 158 206 54 158 206 54 158 206 54 158 206 54 158 206 54 158 206 54 158 206 54 158 206 31 67 123 248 24 216 248 24 216 248 24 216 248 24 216 248 24 216 248 24 216 248 24 216 248 24 216 
178 170 186 178 170 186 178 170 186 178 170 186 178 170 186 178 170 186 178 170 186 178 170 186 178 170 186 178 170 186 178 170 186 178 170 186 178 170 186 178 170 186 54 158 206 54 158 206 54 158 206 54 158 206 54 158 206 54 158 206 54 158 206 54 158 206 54 158 206 54 158 206 23 91 83 23 91 83 23 91 83 23 91 83 23 91 83 23 91 83 23 91 83 23 91 83 23 91 83 
178 170 186 178 170 186 178 170 186 178 170 186 178 170 186 178 170 186 178 170 186 178 170 186 178 170 186 178 170 186 178 170 186 178 170 186 178 170 186 178 170 186 54 158 206 54 158 206 54 158 206 54 158 206 54 158 206 54 158 206 54 158 206 54 158 206 54 158 206 54 158 206 23 91 83 23 91 83 23 91 83 23 91 83 23 91 83 23 91 83 23 91 83 23 91 83 23 91 83 
178 170 186 178 170 186 178 170 186 178 170 186 178 170 186 178 170 186 178 170 186 178 170 186 178 170 186 178 170 186 178 170 186 178 170 186 178 170 186 178 170 186 54 158 206 54 158 206 54 158 206 54 158 206 54 158 206 54 158 206 54 158 206 54 158 206 54 158 206 54 158 206 23 91 83 23 91 83 23 91 83 23 91 83 23 91 83 23 91 83 23 91 83 23 91 83 23 91 83 
178 170 186 178 170 186 178 170 186 178 170 186 178 170 186 178 170 186 178 170 186 178 170 186 178 170 186 178 170 186 178 170 186 178 170 186 178 170 186 178 170 186 54 158 206 54 158 206 54 158 206 54 158 206 54 158 206 54 158 206 54 158 206 54 158 206 54 158 206 54 158 206 23 91 83 23 91 83 23 91 83 23 91 83 23 91 83 23 91 83 23 91 83 23 91 83 23 91 83 
178 170 186 178 170 186 178 170 186 178 170 186 178 170 186 178 170 186 178 170 186 178 170 186 178 170 186 178 170 186 178 170 186 178 170 186 178 170 186 178 170 186 54 158 206 54 158 206 54 158 206 54 158 206 54 158 206 54 158 206 54 158 206 54 158 206 54 158 206 54 158 206 23 91 83 23 91 83 23 91 83 23 91 83 23 91 83 23 91 83 23 91 83 23 91 83 23 91 83 
178 170 186 178 170 186 178 170 186 178 170 186 178 170 186 178 170 186 178 170 186 178 170 186 178 170 186 178 170 186 178 170 186 178 170 186 178 170 186 178 170 186 54 158 206 54 158 206 54 158 206 54 158 206 54 158 206 54 158 206 54 158 206 54 158 206 54 158 206 54 158 206 23 91 83 23 91 83 23 91 83 23 91 83 23 91 83 23 91 83 23 91 83 23 91 83 23 91 83 
178 170 186 178 170 186 178 170 186 178 170 186 178 170 186 178 170 186 178 170 186 178 170 186 178 170 186 178 170 186 178 170 186 178 170 186 178 170 186 178 170 186 54 158 206 54 158 206 54 158 206 54 158 206 54 158 206 54 158 206 54 158 206 54 158 206 54 158 206 54 158 206 23 91 83 23 91 83 23 91 83 23 91 83 23 91 83 23 91 83 23 91 83 23 91 83 23 91 83 
178 170 186 178 170 186 178 170 186 178 170 186 178 170 186 178 170 186 178 170 186 178 170 186 178 170 186 178 170 186 178 170 186 178 170 186 178 170 186 178 170 186 54 158 206 54 158 206 54 158 206 54 158 206 54 158 206 54 158 206 54 158 206 54 158 206 54 158 206 54 158 206 23 91 83 23 91 83 23 91 83 23 91 83 23 91 83 23 91 83 23 91 83 23 91 83 23 91 83 
178 170 186 178 170 186 178 170 186 178 170 186 178 170 186 178 170 186 178 170 186 178 170 186 178 170 186 178 170 186 178 170 186 178 170 186 178 170 186 178 170 186 54 158 206 54 158 206 54 158 206 54 158 206 54 158 206 54 158 206 54 158 206 54 158 206 54 158 206 54 158 206 23 91 83 23 91 83 23 91 83 23 91 83 23 91 83 23 91 83 23 91 83 23 91 83 23 91 83 
